# xmcd CD database file
#
# Track frame offsets:
#	150
#	14075
#	24622
#	39063
#	51974
#	67081
#	84202
#	97826
#	113725
#	123723
#	133944
#	149326
#	164040
#
# Disc length: 2345 seconds
#
# Revision: 0
# Processed by: cddbd v1.5.1PL0 Copyright (c) Steve Scherf et al.
# Submitted via: CDex 1.51
#
DISCID=b609270d
DTITLE=THE MACKSHOW - 爆発！750cc小僧
DYEAR=2005
DGENRE=Rock and Roll
TTITLE0=ナナハン小僧のテーマ
TTITLE1=家出娘に気をつけろ
TTITLE2=グッバイ・ステディ
TTITLE3=ハロー！ロックナイト
TTITLE4=ミスター・センチメンタル・ロンリーボーイ
TTITLE5=ハイティーン・ガール
TTITLE6=涙のチェリー・コーク
TTITLE7=ショート・ホープ
TTITLE8=ボーイズ
TTITLE9=抱きしめたい
TTITLE10=捨てたはずの恋
TTITLE11=夜はつかのま
TTITLE12=リップスティック・ロックンローラー
EXTD=YEAR: 2005
EXTT0=
EXTT1=
EXTT2=
EXTT3=
EXTT4=
EXTT5=
EXTT6=
EXTT7=
EXTT8=
EXTT9=
EXTT10=
EXTT11=
EXTT12=
PLAYORDER=
